<?xml version="1.0" standalone="no"?>
<!DOCTYPE svg PUBLIC "-//W3C//DTD SVG 20010904//EN"
 "http://www.w3.org/TR/2001/REC-SVG-20010904/DTD/svg10.dtd">
<svg version="1.0" xmlns="http://www.w3.org/2000/svg"
 width="687.000000pt" height="480.000000pt" viewBox="0 0 687.000000 480.000000"
 preserveAspectRatio="xMidYMid meet">

<g transform="translate(0.000000,480.000000) scale(0.100000,-0.100000)"
fill="#000000" stroke="none">
<path d="M3196 3234 c-446 -81 -726 -370 -823 -850 -26 -129 -25 -489 1 -629
20 -106 65 -254 98 -320 163 -323 441 -507 822 -546 170 -17 395 6 531 54 185
66 333 191 431 364 36 63 98 222 90 230 -19 19 -334 173 -350 171 -15 -2 -24
-18 -36 -58 -28 -92 -70 -162 -139 -231 -82 -81 -172 -122 -307 -139 -235 -30
-442 50 -559 214 -81 115 -120 246 -135 450 -24 350 44 620 192 762 81 78 136
109 233 134 95 24 260 27 353 5 65 -15 145 -52 195 -89 38 -28 115 -130 138
-183 14 -33 24 -43 42 -43 16 0 306 164 346 196 8 7 -62 141 -105 201 -111
156 -310 265 -558 308 -111 19 -352 18 -460 -1z"/>
<path d="M360 2065 l0 -1155 225 0 225 0 0 435 0 435 273 0 c275 0 365 8 479
44 144 45 289 157 361 277 63 107 89 204 94 355 16 418 -190 679 -592 750 -62
11 -193 14 -572 14 l-493 0 0 -1155z m1012 767 c145 -58 219 -217 190 -408
-22 -140 -87 -222 -212 -265 -58 -20 -90 -23 -302 -27 l-238 -4 0 367 0 367
253 -4 c234 -3 256 -5 309 -26z"/>
<path d="M4501 3133 c72 -210 749 -2216 749 -2219 0 -2 123 -4 274 -4 l273 0
172 507 c94 280 270 799 389 1156 l219 647 -235 -2 -235 -3 -77 -240 c-464
-1450 -472 -1475 -495 -1475 -24 0 6 -87 -374 1080 l-206 635 -242 3 -242 2
30 -87z"/>
</g>
</svg>
